<svg xmlns="http://www.w3.org/2000/svg" viewBox="0 0 512 512"><path d="M511.999 256.767c-.265 89.329-46.292 167.885-115.865 213.479a5.668 5.668 0 0 1-3.108.922H118.827a5.182 5.182 0 0 1-2.837-.841C46.146 424.613 0 345.693 0 255.99 0 114.611 114.614.001 255.998 0c141.337-.001 256.421 115.431 256.001 256.767z" fill="#0582b0"/><path d="M170 64.998c0 24.852-20.147 44.998-45 44.998S80 89.849 80 64.998 100.147 20 125 20s45 20.146 45 44.998zm225 24.999c-19.33 0-35 15.669-35 34.999s15.67 34.999 35 34.999 35-15.669 35-34.999-15.67-34.999-35-34.999zM55 199.993c-13.807 0-25 11.192-25 24.999s11.193 24.999 25 24.999 25-11.192 25-24.999-11.193-24.999-25-24.999zm415 54.997c-13.807 0-25 11.192-25 24.999s11.193 24.999 25 24.999 25-11.192 25-24.999-11.193-24.999-25-24.999z" fill="#3693bd"/><path d="M392.317 225.926c56.637 79.742 33.027 190.858-51.142 240.684a190.466 190.466 0 0 1-170.35 0c-84.168-49.826-107.779-160.942-51.142-240.684 0 0 20.431-34.465 20.317-25.934-.445 33.223 18.004 45.649 31.885 43.784C220.884 237.191 140.82 143.301 230 49.998c16.938-17.721 40.68-29.999 65.194-29.999-41.324 94.04 65.755 110.886 44.92 223.777-2.542 13.773 33.885-11.785 32.44-45.674-.363-8.524 19.763 27.824 19.763 27.824zM470 269.99c-5.523 0-10 4.477-10 10s4.477 10 10 10 10-4.477 10-10-4.477-10-10-10zM125 79.997c8.284 0 15-6.716 15-14.999 0-8.284-6.716-14.999-15-14.999s-15 6.715-15 14.999c0 8.283 6.716 14.999 15 14.999zm270 54.998c5.523 0 10-4.477 10-10s-4.477-10-10-10-10 4.477-10 10 4.477 10 10 10zM55 214.992c-5.523 0-10 4.477-10 10s4.477 10 10 10 10-4.477 10-10-4.477-10-10-10z" fill="#ffdf8e"/><path d="M295.194 19.999a140.934 140.934 0 0 0-2.313 5.621c-13.592 5.253-26.048 13.856-36.105 24.378-89.18 93.302-9.116 187.193-58.115 193.778-5.135.69-10.894-.582-16.092-4.133 24.691-20.195-33.322-105.16 47.43-189.645 16.939-17.72 40.681-29.999 65.195-29.999zM197.601 466.61c-83.647-49.517-107.47-159.562-52.171-239.193-3.441-6.802-5.585-15.847-5.43-27.425.114-8.531-20.317 25.934-20.317 25.934-56.637 79.742-33.027 190.858 51.142 240.684 30.912 15.455 64.979 21.981 98.563 19.616a190.33 190.33 0 0 1-71.787-19.616z" fill="#fbc56d"/><path d="M356.999 374.016c14.316-9.11-11.339 66.918-11.339 66.918-4.711 27.803-32.179 45.643-59.496 38.643a48.157 48.157 0 0 1-11.189-4.44c-12.244 6.899-25.853 6.899-38.097 0a48.157 48.157 0 0 1-11.189 4.44c-27.318 7.001-54.785-10.839-59.496-38.643 0 0-23.132-79.118-11.339-66.918 34.083 35.257 50.723 8.594 50.723 8.594 30.958-35.036 54.356-118.118 50.35-161.373-3.898-42.081 72.279 84.616 50.35 161.373-.002 0 18.402 11.973 50.722-8.594z" fill="#ff8835"/><path d="M226.089 407.818s-17.261 27.656-52.614-8.914c-12.233-12.655 11.762 69.413 11.762 69.413.234 1.383.539 2.734.879 4.067-10.182-7.111-17.667-18.132-19.924-31.45 0 0-23.132-79.118-11.339-66.918 34.083 35.257 50.723 8.594 50.723 8.594 30.958-35.037 54.356-118.118 50.349-161.373-1.554-16.782 9.627-6.72 22.241 16.311.003.86.05 1.817.149 2.881 4.156 44.867-20.114 131.046-52.226 167.389zm51.863-7.833a40.101 40.101 0 0 1 1.024 8.976c0 22.09-17.909 39.999-40 39.999-3.088 0-6.089-.362-8.976-1.024 4.076 17.766 19.973 31.023 38.976 31.023 22.091 0 40-17.908 40-39.999 0-19.003-13.257-34.899-31.024-38.975z" fill="#ff7118"/><path d="M115.127 469.781c8.824-14.177 24.548-23.613 42.476-23.613 12.551 0 24.012 4.635 32.792 12.273 8.779-7.638 20.242-12.273 32.793-12.273 12.551 0 24.012 4.635 32.792 12.273 8.779-7.639 20.242-12.273 32.793-12.273 12.551 0 24.012 4.635 32.791 12.273 8.779-7.639 20.242-12.273 32.793-12.273 17.929 0 33.64 9.445 42.462 23.623C356.415 496.461 308.017 512 255.981 512c-52.042 0-100.447-15.543-140.854-42.219z" fill="#7a8c98"/><path d="M396.812 469.803a254.807 254.807 0 0 1-66.931 31.356 25.052 25.052 0 0 1-.515-4.995c0-23.286 15.945-42.796 37.496-48.354 12.585 3.246 23.247 11.258 29.95 21.993zm-92.444 26.362c0-9.106 2.435-17.643 6.689-24.997a50.191 50.191 0 0 1 10.482-12.697 49.995 49.995 0 0 0-20.261-10.661c-21.551 5.558-37.496 25.068-37.496 48.354 0 5.863 2.033 11.242 5.413 15.504a256.283 256.283 0 0 0 37.62-4.719 24.85 24.85 0 0 1-2.447-10.784zm-106.172-.001c0 3.45.707 6.731 1.971 9.719a256.09 256.09 0 0 0 44.078 5.842c-3.409-4.271-5.461-9.671-5.461-15.561a49.773 49.773 0 0 1 6.688-24.997 50.212 50.212 0 0 1 10.482-12.697 49.993 49.993 0 0 0-20.262-10.661c-21.551 5.559-37.496 25.069-37.496 48.355zm-7.827-37.693a49.995 49.995 0 0 0-20.261-10.661c-16.842 4.343-30.249 17.212-35.308 33.74a254.515 254.515 0 0 0 38.504 16.801 25.08 25.08 0 0 1-.105-2.187 49.773 49.773 0 0 1 6.688-24.997 50.225 50.225 0 0 1 10.482-12.696z" fill="#9facba"/></svg>
